<svg width="24" height="25" viewBox="0 0 24 25" fill="none" xmlns="http://www.w3.org/2000/svg">
<path d="M3 6.47431H5H21" stroke="#F1F2F3" stroke-width="2" stroke-linecap="round" stroke-linejoin="round"/>
<path d="M19 6.47431V20.4743C19 21.0047 18.7893 21.5134 18.4142 21.8885C18.0391 22.2636 17.5304 22.4743 17 22.4743H7C6.46957 22.4743 5.96086 22.2636 5.58579 21.8885C5.21071 21.5134 5 21.0047 5 20.4743V6.47431M8 6.47431V4.47431C8 3.94388 8.21071 3.43517 8.58579 3.06009C8.96086 2.68502 9.46957 2.47431 10 2.47431H14C14.5304 2.47431 15.0391 2.68502 15.4142 3.06009C15.7893 3.43517 16 3.94388 16 4.47431V6.47431" stroke="#F1F2F3" stroke-width="2" stroke-linecap="round" stroke-linejoin="round"/>
</svg>
